<?xml version="1.0" encoding="utf-8"?>
<!-- Generator: Adobe Illustrator 20.0.0, SVG Export Plug-In . SVG Version: 6.00 Build 0)  -->
<svg version="1.1" id="Layer_1" xmlns="http://www.w3.org/2000/svg" xmlns:xlink="http://www.w3.org/1999/xlink" x="0px" y="0px"
	 viewBox="0 0 512 212" style="enable-background:new 0 0 512 212;" xml:space="preserve">
<style type="text/css">
	.st0{fill:#FFFFFF;}
</style>
<path class="st0" d="M55.8,156.6c-6.4-9.4-10.2-20.7-10.2-32.9c0-32.1,26-58.1,58.1-58.1c32.1,0,58.1,26,58.1,58.1
	c0,6.1-0.9,14-2.7,19.5l-59.9,0v13.4H167c5.1-9.8,8-21,8-32.9c0-39.4-32-71.4-71.4-71.4c-39.4,0-71.4,32-71.4,71.4
	c0,11.9,2.9,23,8,32.9H55.8z"/>
<g>
	<path class="st0" d="M219.9,76.2l-9.3,23.1h-3.9l-9.3-23.1h3.5c0.4,0,0.7,0.1,0.9,0.3c0.2,0.2,0.4,0.4,0.5,0.7l5.5,14.1
		c0.2,0.5,0.4,1,0.5,1.5c0.2,0.5,0.3,1.1,0.5,1.7c0.1-0.6,0.3-1.2,0.4-1.7c0.1-0.5,0.3-1.1,0.5-1.5l5.4-14.1
		c0.1-0.2,0.3-0.5,0.5-0.7s0.6-0.3,0.9-0.3H219.9z"/>
	<path class="st0" d="M226.6,79.6V86h8.1v3.3h-8.1v6.5h10.3v3.4h-14.6V76.2h14.6v3.4H226.6z"/>
	<path class="st0" d="M249.5,91.1c0,1.3-0.2,2.5-0.5,3.5c-0.3,1-0.8,1.9-1.4,2.7c-0.6,0.7-1.4,1.3-2.4,1.7c-0.9,0.4-2.1,0.6-3.3,0.6
		c-0.6,0-1.1,0-1.7-0.1s-1.1-0.2-1.7-0.3c0-0.4,0.1-0.9,0.1-1.3c0-0.4,0.1-0.9,0.1-1.3c0-0.2,0.1-0.4,0.3-0.6
		c0.2-0.1,0.4-0.2,0.7-0.2c0.2,0,0.4,0,0.7,0.1c0.3,0.1,0.7,0.1,1.1,0.1c0.6,0,1.1-0.1,1.6-0.3c0.5-0.2,0.9-0.5,1.2-0.8
		c0.3-0.4,0.6-0.9,0.7-1.5c0.2-0.6,0.2-1.4,0.2-2.2v-15h4.3V91.1z"/>
	<path class="st0" d="M268,95.8v3.6h-13.6V76.2h4.3v19.6H268z"/>
	<path class="st0" d="M275.4,79.6V86h8.1v3.3h-8.1v6.5h10.3v3.4h-14.6V76.2h14.6v3.4H275.4z"/>
	<path class="st0" d="M204.4,137.7h-4.3v-23.1h4.3V137.7z"/>
	<path class="st0" d="M230.1,126.2c0,1.7-0.3,3.3-0.8,4.7c-0.6,1.4-1.4,2.6-2.4,3.7c-1,1-2.3,1.8-3.7,2.4c-1.4,0.6-3,0.8-4.8,0.8
		h-8.8v-23.1h8.8c1.8,0,3.4,0.3,4.8,0.9c1.4,0.6,2.7,1.4,3.7,2.4c1,1,1.8,2.2,2.4,3.7C229.9,122.9,230.1,124.5,230.1,126.2z
		 M225.7,126.2c0-1.3-0.2-2.4-0.5-3.4c-0.3-1-0.8-1.9-1.5-2.6s-1.4-1.2-2.3-1.6c-0.9-0.4-1.9-0.6-3-0.6h-4.5v16.3h4.5
		c1.1,0,2.1-0.2,3-0.6c0.9-0.4,1.7-0.9,2.3-1.6s1.1-1.6,1.5-2.6C225.6,128.6,225.7,127.4,225.7,126.2z"/>
	<path class="st0" d="M252,137.7h-3.9c-0.7,0-1.3-0.3-1.6-0.9l-4.9-7.4c-0.2-0.3-0.4-0.5-0.6-0.6c-0.2-0.1-0.5-0.2-1-0.2h-1.8v9
		h-4.3v-23.1h7.1c1.6,0,2.9,0.2,4,0.5c1.1,0.3,2,0.8,2.8,1.4c0.7,0.6,1.2,1.3,1.6,2.1c0.3,0.8,0.5,1.7,0.5,2.7
		c0,0.8-0.1,1.5-0.3,2.2c-0.2,0.7-0.6,1.3-1,1.9s-1,1.1-1.6,1.5c-0.6,0.4-1.4,0.8-2.2,1c0.3,0.2,0.5,0.3,0.8,0.6
		c0.2,0.2,0.4,0.5,0.6,0.8L252,137.7z M240.9,125.6c0.8,0,1.5-0.1,2.1-0.3c0.6-0.2,1.1-0.5,1.5-0.8c0.4-0.4,0.7-0.8,0.9-1.3
		c0.2-0.5,0.3-1,0.3-1.6c0-1.2-0.4-2.1-1.2-2.7c-0.8-0.6-2-0.9-3.5-0.9h-2.8v7.7H240.9z"/>
	<path class="st0" d="M269.4,118l0.8,6.4h8.1v3.3h-7.7l0.8,6.5h9.1v3.4h-12.8l-0.7-5.7h-8.3l-2.3,4.7c-0.1,0.3-0.3,0.5-0.6,0.7
		c-0.3,0.2-0.6,0.3-1,0.3h-3.3l11.8-23.1h17.2v3.4H269.4z M266.7,129l-1.4-11.2c-0.2,0.5-0.3,1.1-0.5,1.5c-0.2,0.5-0.4,0.9-0.6,1.3
		l-4,8.3H266.7z"/>
	<path class="st0" d="M300.5,118.1h-7v19.6h-4.3v-19.6h-7v-3.5h18.3V118.1z"/>
	<path class="st0" d="M315.8,118.8c-0.1,0.2-0.3,0.4-0.4,0.5c-0.1,0.1-0.3,0.2-0.5,0.2c-0.2,0-0.5-0.1-0.7-0.2
		c-0.3-0.2-0.6-0.3-0.9-0.6c-0.4-0.2-0.8-0.4-1.3-0.6c-0.5-0.2-1.1-0.2-1.7-0.2c-0.6,0-1.1,0.1-1.6,0.2c-0.4,0.1-0.8,0.3-1.1,0.6
		c-0.3,0.3-0.5,0.6-0.7,0.9c-0.1,0.4-0.2,0.8-0.2,1.2c0,0.5,0.2,1,0.5,1.4c0.3,0.4,0.7,0.7,1.2,0.9c0.5,0.3,1.1,0.5,1.7,0.7
		c0.6,0.2,1.3,0.4,2,0.6s1.3,0.5,2,0.8c0.6,0.3,1.2,0.7,1.7,1.2c0.5,0.5,0.9,1,1.2,1.7c0.3,0.7,0.5,1.5,0.5,2.4c0,1-0.2,2-0.5,2.9
		c-0.4,0.9-0.9,1.7-1.6,2.4c-0.7,0.7-1.5,1.2-2.5,1.6c-1,0.4-2.1,0.6-3.4,0.6c-0.7,0-1.5-0.1-2.2-0.2s-1.4-0.3-2.1-0.6
		s-1.3-0.6-1.8-1c-0.6-0.4-1.1-0.8-1.5-1.2l1.3-2.1c0.1-0.1,0.2-0.3,0.4-0.4s0.4-0.2,0.5-0.2c0.3,0,0.6,0.1,0.9,0.3
		c0.3,0.2,0.7,0.5,1.1,0.7s0.9,0.5,1.5,0.7s1.3,0.3,2.1,0.3c1.2,0,2.2-0.3,2.8-0.9s1-1.4,1-2.5c0-0.6-0.2-1.1-0.5-1.5
		s-0.7-0.7-1.2-1c-0.5-0.3-1.1-0.5-1.7-0.7s-1.3-0.4-2-0.6c-0.7-0.2-1.3-0.5-2-0.8c-0.6-0.3-1.2-0.7-1.7-1.2
		c-0.5-0.5-0.9-1.1-1.2-1.8c-0.3-0.7-0.5-1.6-0.5-2.7c0-0.8,0.2-1.7,0.5-2.5s0.8-1.5,1.5-2.1c0.6-0.6,1.4-1.1,2.4-1.5s2-0.6,3.2-0.6
		c1.4,0,2.6,0.2,3.8,0.6c1.2,0.4,2.1,1,2.9,1.8L315.8,118.8z"/>
	<path class="st0" d="M340.6,114.6v23.1h-4.3v-10.1h-10.9v10.1h-4.3v-23.1h4.3v10h10.9v-10H340.6z"/>
	<path class="st0" d="M364.3,117.5c1.1,1.1,1.9,2.3,2.6,3.8c0.6,1.5,0.9,3.1,0.9,4.9c0,1.7-0.3,3.3-0.8,4.7
		c-0.6,1.4-1.4,2.7-2.4,3.8c-1,1.1-2.3,1.9-3.7,2.5c-1.4,0.6-3,0.9-4.8,0.9c-1.1,0-2.1-0.1-3-0.3s-1.8-0.5-2.7-1l-1.2,1.7
		c-0.3,0.4-0.7,0.7-1.1,0.9c-0.4,0.2-0.8,0.3-1.3,0.3h-1.7l3.1-4.3c-1.2-1.1-2.2-2.4-2.8-3.9s-1-3.3-1-5.1c0-1.7,0.3-3.3,0.8-4.7
		s1.4-2.7,2.4-3.8c1-1.1,2.3-1.9,3.7-2.5c1.4-0.6,3-0.9,4.8-0.9c1.2,0,2.3,0.1,3.3,0.4s2,0.7,2.9,1.2l0.9-1.3
		c0.1-0.2,0.3-0.4,0.4-0.5c0.1-0.1,0.2-0.2,0.4-0.3c0.1-0.1,0.3-0.1,0.4-0.2c0.2,0,0.4-0.1,0.6-0.1h2.2L364.3,117.5z M360,119
		c-0.5-0.3-1.1-0.6-1.8-0.7s-1.4-0.3-2.1-0.3c-1.1,0-2.1,0.2-3,0.6s-1.7,0.9-2.3,1.6s-1.1,1.6-1.5,2.6c-0.3,1-0.5,2.1-0.5,3.4
		c0,1.2,0.2,2.3,0.5,3.3c0.3,1,0.8,1.8,1.4,2.5L360,119z M352.6,133.6c1,0.5,2.2,0.7,3.5,0.7c1.1,0,2.1-0.2,3-0.6
		c0.9-0.4,1.7-0.9,2.3-1.6c0.6-0.7,1.1-1.6,1.5-2.6c0.3-1,0.5-2.1,0.5-3.4c0-1.1-0.1-2.1-0.4-3c-0.3-0.9-0.6-1.7-1.1-2.4
		L352.6,133.6z"/>
	<path class="st0" d="M379.4,129.5c0,1.3-0.2,2.5-0.5,3.5c-0.3,1-0.8,1.9-1.4,2.7c-0.6,0.7-1.4,1.3-2.4,1.7
		c-0.9,0.4-2.1,0.6-3.3,0.6c-0.6,0-1.1,0-1.7-0.1c-0.6-0.1-1.1-0.2-1.7-0.3c0-0.4,0.1-0.9,0.1-1.3s0.1-0.9,0.1-1.3
		c0-0.2,0.1-0.4,0.3-0.6c0.2-0.1,0.4-0.2,0.7-0.2c0.2,0,0.4,0,0.7,0.1c0.3,0.1,0.7,0.1,1.1,0.1c0.6,0,1.1-0.1,1.6-0.3
		c0.5-0.2,0.9-0.5,1.2-0.8c0.3-0.4,0.6-0.9,0.7-1.5c0.2-0.6,0.2-1.4,0.2-2.2v-15h4.3V129.5z"/>
	<path class="st0" d="M396.7,118.8c-0.1,0.2-0.3,0.4-0.4,0.5c-0.1,0.1-0.3,0.2-0.5,0.2c-0.2,0-0.5-0.1-0.7-0.2
		c-0.3-0.2-0.6-0.3-0.9-0.6c-0.4-0.2-0.8-0.4-1.3-0.6c-0.5-0.2-1.1-0.2-1.7-0.2c-0.6,0-1.1,0.1-1.6,0.2c-0.4,0.1-0.8,0.3-1.1,0.6
		c-0.3,0.3-0.5,0.6-0.7,0.9c-0.1,0.4-0.2,0.8-0.2,1.2c0,0.5,0.2,1,0.5,1.4c0.3,0.4,0.7,0.7,1.2,0.9c0.5,0.3,1.1,0.5,1.7,0.7
		c0.6,0.2,1.3,0.4,2,0.6s1.3,0.5,2,0.8c0.6,0.3,1.2,0.7,1.7,1.2c0.5,0.5,0.9,1,1.2,1.7c0.3,0.7,0.5,1.5,0.5,2.4c0,1-0.2,2-0.5,2.9
		c-0.4,0.9-0.9,1.7-1.6,2.4c-0.7,0.7-1.5,1.2-2.5,1.6c-1,0.4-2.1,0.6-3.4,0.6c-0.7,0-1.5-0.1-2.2-0.2s-1.4-0.3-2.1-0.6
		s-1.3-0.6-1.8-1c-0.6-0.4-1.1-0.8-1.5-1.2l1.3-2.1c0.1-0.1,0.2-0.3,0.4-0.4s0.4-0.2,0.5-0.2c0.3,0,0.6,0.1,0.9,0.3
		c0.3,0.2,0.7,0.5,1.1,0.7s0.9,0.5,1.5,0.7s1.3,0.3,2.1,0.3c1.2,0,2.2-0.3,2.8-0.9s1-1.4,1-2.5c0-0.6-0.2-1.1-0.5-1.5
		s-0.7-0.7-1.2-1c-0.5-0.3-1.1-0.5-1.7-0.7s-1.3-0.4-2-0.6c-0.7-0.2-1.3-0.5-2-0.8c-0.6-0.3-1.2-0.7-1.7-1.2
		c-0.5-0.5-0.9-1.1-1.2-1.8c-0.3-0.7-0.5-1.6-0.5-2.7c0-0.8,0.2-1.7,0.5-2.5s0.8-1.5,1.5-2.1c0.6-0.6,1.4-1.1,2.4-1.5s2-0.6,3.2-0.6
		c1.4,0,2.6,0.2,3.8,0.6c1.2,0.4,2.1,1,2.9,1.8L396.7,118.8z"/>
	<path class="st0" d="M406.2,124.3h1c0.4,0,0.7-0.1,1-0.2c0.3-0.1,0.5-0.3,0.7-0.5l6.4-8.1c0.3-0.3,0.5-0.6,0.8-0.7
		c0.3-0.1,0.7-0.2,1.1-0.2h3.7l-7.8,9.6c-0.5,0.6-0.9,1-1.4,1.2c0.4,0.1,0.7,0.3,1,0.5c0.3,0.2,0.6,0.5,0.8,0.9l8,10.8h-3.8
		c-0.5,0-0.9-0.1-1.1-0.2c-0.3-0.1-0.5-0.4-0.6-0.6l-6.5-8.5c-0.2-0.3-0.4-0.5-0.7-0.6s-0.7-0.2-1.2-0.2h-1.4v10.2h-4.3v-23.1h4.3
		V124.3z"/>
	<path class="st0" d="M444.7,126.2c0,1.7-0.3,3.3-0.8,4.7c-0.6,1.4-1.4,2.7-2.4,3.8c-1,1.1-2.3,1.9-3.7,2.5c-1.4,0.6-3,0.9-4.8,0.9
		c-1.7,0-3.3-0.3-4.8-0.9c-1.4-0.6-2.7-1.4-3.7-2.5c-1-1.1-1.8-2.3-2.4-3.8c-0.6-1.4-0.8-3-0.8-4.7c0-1.7,0.3-3.3,0.8-4.7
		s1.4-2.7,2.4-3.8c1-1.1,2.3-1.9,3.7-2.5c1.4-0.6,3-0.9,4.8-0.9c1.2,0,2.3,0.1,3.3,0.4c1,0.3,2,0.7,2.8,1.2s1.6,1.1,2.3,1.8
		c0.7,0.7,1.3,1.5,1.8,2.4c0.5,0.9,0.8,1.8,1.1,2.8C444.6,124,444.7,125,444.7,126.2z M440.3,126.2c0-1.3-0.2-2.4-0.5-3.4
		c-0.3-1-0.8-1.9-1.5-2.6c-0.6-0.7-1.4-1.2-2.3-1.6s-1.9-0.6-3-0.6s-2.1,0.2-3,0.6s-1.7,0.9-2.3,1.6s-1.1,1.6-1.5,2.6
		c-0.3,1-0.5,2.1-0.5,3.4c0,1.3,0.2,2.4,0.5,3.4c0.3,1,0.8,1.9,1.5,2.6s1.4,1.2,2.3,1.6c0.9,0.4,1.9,0.6,3,0.6s2.1-0.2,3-0.6
		c0.9-0.4,1.7-0.9,2.3-1.6c0.6-0.7,1.1-1.6,1.5-2.6C440.1,128.6,440.3,127.4,440.3,126.2z"/>
	<path class="st0" d="M462.1,134.2v3.6h-13.6v-23.1h4.3v19.6H462.1z"/>
	<path class="st0" d="M469.4,118v6.4h8.1v3.3h-8.1v6.5h10.3v3.4h-14.6v-23.1h14.6v3.4H469.4z"/>
</g>
</svg>
