<svg viewBox="0 0 296.7 265.7" xmlns="http://www.w3.org/2000/svg"><g clip-rule="evenodd" fill-rule="evenodd"><path d="M148.3 60.5l57.8 88.9c10.3 15.9 13.2 34.6 9.5 51.9-3.4 16.1-12.5 31-26.5 41.3-7.9 5.7-16.9 9.7-26.3 11.7-17.3 3.7-36 .8-51.8-9.5-15.9-10.3-26.1-26.2-29.8-43.5s-.8-36 9.5-51.9l57.6-88.9z" fill="#CF2E2E"/><path d="M148.3 68.4l53.1 81.7c9.5 14.6 12.1 31.7 8.7 47.6-3.1 14.8-11.5 28.4-24.4 37.9-3.3 2.4-6.9 4.5-10.6 6.2 10.4-9.2 17.3-21.4 20.1-34.4 3.4-15.9.7-33.1-8.7-47.6l-48.8-75.1 10.6-16.3z" fill="#B02D2F"/><path d="M294.9 64.2c4.3 20.3.9 42.3-11.2 61l-67.9 104.5c-12.2 18.2-30.6 29.9-50.5 34.2-43.9 9.3-86.7-18.6-96.1-62.4-4.3-20.3-.9-42.3 11.2-61L147.6 37c12.2-18.7 30.8-30.8 51.2-35.1 43.9-9.4 86.8 18.5 96.1 62.3zm-92.4-45c-15.9 3.4-30.5 12.8-40 27.4L95.3 150.1c-9.5 14.6-12.1 31.7-8.7 47.6 7.3 34.3 40.7 56 75 48.7 15.9-3.4 30.5-12.8 40-27.4l67.2-103.6c9.5-14.6 12.1-31.7 8.7-47.6-7.3-34.3-40.7-55.9-75-48.6z" fill="#000D3E"/><path d="M1.8 64.3c-4.3 20.3-.9 42.3 11.2 61l67.9 104.5c12.2 18.2 30.6 29.9 50.5 34.2 43.9 9.3 86.7-18.6 96.1-62.4 4.3-20.3.9-42.3-11.2-61l-60.6-93.4-11.2 15.3 57 87.7c9.5 14.6 12.1 31.7 8.7 47.6-7.3 34.3-40.7 56-75 48.7-15.9-3.4-30.5-12.8-40-27.4L27.9 115.6C18.4 101 15.8 83.9 19.2 68c7.3-34.3 40.7-56 75-48.7 9.9 2.1 19.4 6.6 27.3 13.2 1.4 1.1 2.9 1.6 4.7 1.3 1.7-.3 3.1-1.2 4.1-2.6l3.2-5c1.7-2.6 1.1-5.9-1.2-7.8-10.1-8.2-22-13.8-34.4-16.4C54-7.5 11.1 20.4 1.8 64.3z" fill="#000D3E"/></g></svg>