<?xml version="1.0" encoding="utf-8"?>
<!-- Generator: Adobe Illustrator 18.1.1, SVG Export Plug-In . SVG Version: 6.00 Build 0)  -->
<svg version="1.1" id="Lag_1" xmlns="http://www.w3.org/2000/svg" xmlns:xlink="http://www.w3.org/1999/xlink" x="0px" y="0px"
	 viewBox="0 0 296.7 265.7" enable-background="new 0 0 296.7 265.7" xml:space="preserve">
<g>
	<path fill-rule="evenodd" clip-rule="evenodd" fill="#CF2E2E" d="M148.3,60.5l57.8,88.9c10.3,15.9,13.2,34.6,9.5,51.9
		c-3.4,16.1-12.5,31-26.5,41.3c-7.9,5.7-16.9,9.7-26.3,11.7c-17.3,3.7-36,0.8-51.8-9.5l0,0c-15.9-10.3-26.1-26.2-29.8-43.5
		c-3.7-17.3-0.8-36,9.5-51.9L148.3,60.5z"/>
	<path fill-rule="evenodd" clip-rule="evenodd" fill="#B02D2F" d="M148.3,68.4l53.1,81.7c9.5,14.6,12.1,31.7,8.7,47.6
		c-3.1,14.8-11.5,28.4-24.4,37.9c-3.3,2.4-6.9,4.5-10.6,6.2c10.4-9.2,17.3-21.4,20.1-34.4c3.4-15.9,0.7-33.1-8.7-47.6l-48.8-75.1
		L148.3,68.4z"/>
	<path fill-rule="evenodd" clip-rule="evenodd" fill="#000D3E" d="M294.9,64.2c4.3,20.3,0.9,42.3-11.2,61l-67.9,104.5
		c-12.2,18.2-30.6,29.9-50.5,34.2c-43.9,9.3-86.7-18.6-96.1-62.4c-4.3-20.3-0.9-42.3,11.2-61l67.2-103.5
		c12.2-18.7,30.8-30.8,51.2-35.1C242.7-7.5,285.6,20.4,294.9,64.2L294.9,64.2z M202.5,19.2c-15.9,3.4-30.5,12.8-40,27.4L95.3,150.1
		c-9.5,14.6-12.1,31.7-8.7,47.6c7.3,34.3,40.7,56,75,48.7c15.9-3.4,30.5-12.8,40-27.4l67.2-103.6c9.5-14.6,12.1-31.7,8.7-47.6
		C270.2,33.5,236.8,11.9,202.5,19.2z"/>
	<path fill-rule="evenodd" clip-rule="evenodd" fill="#000D3E" d="M1.8,64.3c-4.3,20.3-0.9,42.3,11.2,61l67.9,104.5
		c12.2,18.2,30.6,29.9,50.5,34.2c43.9,9.3,86.7-18.6,96.1-62.4c4.3-20.3,0.9-42.3-11.2-61l-60.6-93.4l-11.2,15.3l57,87.7
		c9.5,14.6,12.1,31.7,8.7,47.6c-7.3,34.3-40.7,56-75,48.7c-15.9-3.4-30.5-12.8-40-27.4L27.9,115.6c-9.5-14.6-12.1-31.7-8.7-47.6
		c7.3-34.3,40.7-56,75-48.7c9.9,2.1,19.4,6.6,27.3,13.2c1.4,1.1,2.9,1.6,4.7,1.3c1.7-0.3,3.1-1.2,4.1-2.6l3.2-5
		c1.7-2.6,1.1-5.9-1.2-7.8c-10.1-8.2-22-13.8-34.4-16.4C54-7.5,11.1,20.4,1.8,64.3z"/>
</g>
</svg>
