<svg id="Layer_1" xmlns="http://www.w3.org/2000/svg" viewBox="0 0 512 212"><style>.st0{fill:#fff}</style><path class="st0" d="M55.8 156.6c-6.4-9.4-10.2-20.7-10.2-32.9 0-32.1 26-58.1 58.1-58.1s58.1 26 58.1 58.1c0 6.1-.9 14-2.7 19.5H99.2v13.4H167c5.1-9.8 8-21 8-32.9 0-39.4-32-71.4-71.4-71.4-39.4 0-71.4 32-71.4 71.4 0 11.9 2.9 23 8 32.9h15.6zm164.1-80.4l-9.3 23.1h-3.9l-9.3-23.1h3.5c.4 0 .7.1.9.3.2.2.4.4.5.7l5.5 14.1c.2.5.4 1 .5 1.5.2.5.3 1.1.5 1.7.1-.6.3-1.2.4-1.7.1-.5.3-1.1.5-1.5l5.4-14.1c.1-.2.3-.5.5-.7s.6-.3.9-.3h3.4zm6.7 3.4V86h8.1v3.3h-8.1v6.5h10.3v3.4h-14.6v-23h14.6v3.4h-10.3zm22.9 11.5c0 1.3-.2 2.5-.5 3.5s-.8 1.9-1.4 2.7c-.6.7-1.4 1.3-2.4 1.7-.9.4-2.1.6-3.3.6-.6 0-1.1 0-1.7-.1s-1.1-.2-1.7-.3c0-.4.1-.9.1-1.3s.1-.9.1-1.3c0-.2.1-.4.3-.6.2-.1.4-.2.7-.2.2 0 .4 0 .7.1.3.1.7.1 1.1.1.6 0 1.1-.1 1.6-.3.5-.2.9-.5 1.2-.8.3-.4.6-.9.7-1.5.2-.6.2-1.4.2-2.2v-15h4.3v14.9zm18.5 4.7v3.6h-13.6V76.2h4.3v19.6h9.3zm7.4-16.2V86h8.1v3.3h-8.1v6.5h10.3v3.4h-14.6v-23h14.6v3.4h-10.3zm-71 58.1h-4.3v-23.1h4.3v23.1zm25.7-11.5c0 1.7-.3 3.3-.8 4.7-.6 1.4-1.4 2.6-2.4 3.7-1 1-2.3 1.8-3.7 2.4-1.4.6-3 .8-4.8.8h-8.8v-23.1h8.8c1.8 0 3.4.3 4.8.9 1.4.6 2.7 1.4 3.7 2.4s1.8 2.2 2.4 3.7c.6 1.2.8 2.8.8 4.5zm-4.4 0c0-1.3-.2-2.4-.5-3.4s-.8-1.9-1.5-2.6-1.4-1.2-2.3-1.6c-.9-.4-1.9-.6-3-.6h-4.5v16.3h4.5c1.1 0 2.1-.2 3-.6.9-.4 1.7-.9 2.3-1.6s1.1-1.6 1.5-2.6c.4-.9.5-2.1.5-3.3zm26.3 11.5h-3.9c-.7 0-1.3-.3-1.6-.9l-4.9-7.4c-.2-.3-.4-.5-.6-.6-.2-.1-.5-.2-1-.2h-1.8v9h-4.3v-23.1h7.1c1.6 0 2.9.2 4 .5s2 .8 2.8 1.4c.7.6 1.2 1.3 1.6 2.1.3.8.5 1.7.5 2.7 0 .8-.1 1.5-.3 2.2-.2.7-.6 1.3-1 1.9s-1 1.1-1.6 1.5c-.6.4-1.4.8-2.2 1 .3.2.5.3.8.6.2.2.4.5.6.8l5.8 8.5zm-11.1-12.1c.8 0 1.5-.1 2.1-.3.6-.2 1.1-.5 1.5-.8.4-.4.7-.8.9-1.3.2-.5.3-1 .3-1.6 0-1.2-.4-2.1-1.2-2.7-.8-.6-2-.9-3.5-.9h-2.8v7.7h2.7z"/><path class="st0" d="M269.4 118l.8 6.4h8.1v3.3h-7.7l.8 6.5h9.1v3.4h-12.8l-.7-5.7h-8.3l-2.3 4.7c-.1.3-.3.5-.6.7-.3.2-.6.3-1 .3h-3.3l11.8-23.1h17.2v3.4h-11.1zm-2.7 11l-1.4-11.2c-.2.5-.3 1.1-.5 1.5-.2.5-.4.9-.6 1.3l-4 8.3h6.5zm33.8-10.9h-7v19.6h-4.3v-19.6h-7v-3.5h18.3v3.5zm15.3.7c-.1.2-.3.4-.4.5-.1.1-.3.2-.5.2s-.5-.1-.7-.2c-.3-.2-.6-.3-.9-.6-.4-.2-.8-.4-1.3-.6-.5-.2-1.1-.2-1.7-.2-.6 0-1.1.1-1.6.2-.4.1-.8.3-1.1.6-.3.3-.5.6-.7.9-.1.4-.2.8-.2 1.2 0 .5.2 1 .5 1.4.3.4.7.7 1.2.9.5.3 1.1.5 1.7.7.6.2 1.3.4 2 .6s1.3.5 2 .8c.6.3 1.2.7 1.7 1.2s.9 1 1.2 1.7c.3.7.5 1.5.5 2.4 0 1-.2 2-.5 2.9-.4.9-.9 1.7-1.6 2.4-.7.7-1.5 1.2-2.5 1.6-1 .4-2.1.6-3.4.6-.7 0-1.5-.1-2.2-.2s-1.4-.3-2.1-.6-1.3-.6-1.8-1c-.6-.4-1.1-.8-1.5-1.2l1.3-2.1c.1-.1.2-.3.4-.4s.4-.2.5-.2c.3 0 .6.1.9.3.3.2.7.5 1.1.7s.9.5 1.5.7 1.3.3 2.1.3c1.2 0 2.2-.3 2.8-.9s1-1.4 1-2.5c0-.6-.2-1.1-.5-1.5s-.7-.7-1.2-1c-.5-.3-1.1-.5-1.7-.7s-1.3-.4-2-.6c-.7-.2-1.3-.5-2-.8-.6-.3-1.2-.7-1.7-1.2s-.9-1.1-1.2-1.8c-.3-.7-.5-1.6-.5-2.7 0-.8.2-1.7.5-2.5s.8-1.5 1.5-2.1c.6-.6 1.4-1.1 2.4-1.5s2-.6 3.2-.6c1.4 0 2.6.2 3.8.6 1.2.4 2.1 1 2.9 1.8l-1.2 2.5zm24.8-4.2v23.1h-4.3v-10.1h-10.9v10.1h-4.3v-23.1h4.3v10h10.9v-10h4.3zm23.7 2.9c1.1 1.1 1.9 2.3 2.6 3.8.6 1.5.9 3.1.9 4.9 0 1.7-.3 3.3-.8 4.7-.6 1.4-1.4 2.7-2.4 3.8-1 1.1-2.3 1.9-3.7 2.5-1.4.6-3 .9-4.8.9-1.1 0-2.1-.1-3-.3s-1.8-.5-2.7-1l-1.2 1.7c-.3.4-.7.7-1.1.9-.4.2-.8.3-1.3.3h-1.7l3.1-4.3c-1.2-1.1-2.2-2.4-2.8-3.9s-1-3.3-1-5.1c0-1.7.3-3.3.8-4.7s1.4-2.7 2.4-3.8c1-1.1 2.3-1.9 3.7-2.5 1.4-.6 3-.9 4.8-.9 1.2 0 2.3.1 3.3.4s2 .7 2.9 1.2l.9-1.3c.1-.2.3-.4.4-.5.1-.1.2-.2.4-.3.1-.1.3-.1.4-.2.2 0 .4-.1.6-.1h2.2l-2.9 3.8zM360 119c-.5-.3-1.1-.6-1.8-.7s-1.4-.3-2.1-.3c-1.1 0-2.1.2-3 .6s-1.7.9-2.3 1.6-1.1 1.6-1.5 2.6c-.3 1-.5 2.1-.5 3.4 0 1.2.2 2.3.5 3.3s.8 1.8 1.4 2.5l9.3-13zm-7.4 14.6c1 .5 2.2.7 3.5.7 1.1 0 2.1-.2 3-.6.9-.4 1.7-.9 2.3-1.6.6-.7 1.1-1.6 1.5-2.6.3-1 .5-2.1.5-3.4 0-1.1-.1-2.1-.4-3-.3-.9-.6-1.7-1.1-2.4l-9.3 12.9zm26.8-4.1c0 1.3-.2 2.5-.5 3.5s-.8 1.9-1.4 2.7c-.6.7-1.4 1.3-2.4 1.7-.9.4-2.1.6-3.3.6-.6 0-1.1 0-1.7-.1-.6-.1-1.1-.2-1.7-.3 0-.4.1-.9.1-1.3s.1-.9.1-1.3c0-.2.1-.4.3-.6.2-.1.4-.2.7-.2.2 0 .4 0 .7.1.3.1.7.1 1.1.1.6 0 1.1-.1 1.6-.3.5-.2.9-.5 1.2-.8.3-.4.6-.9.7-1.5.2-.6.2-1.4.2-2.2v-15h4.3v14.9zm17.3-10.7c-.1.2-.3.4-.4.5-.1.1-.3.2-.5.2s-.5-.1-.7-.2c-.3-.2-.6-.3-.9-.6-.4-.2-.8-.4-1.3-.6-.5-.2-1.1-.2-1.7-.2-.6 0-1.1.1-1.6.2-.4.1-.8.3-1.1.6-.3.3-.5.6-.7.9-.1.4-.2.8-.2 1.2 0 .5.2 1 .5 1.4.3.4.7.7 1.2.9.5.3 1.1.5 1.7.7.6.2 1.3.4 2 .6s1.3.5 2 .8c.6.3 1.2.7 1.7 1.2s.9 1 1.2 1.7c.3.7.5 1.5.5 2.4 0 1-.2 2-.5 2.9-.4.9-.9 1.7-1.6 2.4-.7.7-1.5 1.2-2.5 1.6-1 .4-2.1.6-3.4.6-.7 0-1.5-.1-2.2-.2s-1.4-.3-2.1-.6-1.3-.6-1.8-1c-.6-.4-1.1-.8-1.5-1.2l1.3-2.1c.1-.1.2-.3.4-.4s.4-.2.5-.2c.3 0 .6.1.9.3.3.2.7.5 1.1.7s.9.5 1.5.7 1.3.3 2.1.3c1.2 0 2.2-.3 2.8-.9s1-1.4 1-2.5c0-.6-.2-1.1-.5-1.5s-.7-.7-1.2-1c-.5-.3-1.1-.5-1.7-.7s-1.3-.4-2-.6c-.7-.2-1.3-.5-2-.8-.6-.3-1.2-.7-1.7-1.2s-.9-1.1-1.2-1.8c-.3-.7-.5-1.6-.5-2.7 0-.8.2-1.7.5-2.5s.8-1.5 1.5-2.1c.6-.6 1.4-1.1 2.4-1.5s2-.6 3.2-.6c1.4 0 2.6.2 3.8.6 1.2.4 2.1 1 2.9 1.8l-1.2 2.5zm9.5 5.5h1c.4 0 .7-.1 1-.2.3-.1.5-.3.7-.5l6.4-8.1c.3-.3.5-.6.8-.7.3-.1.7-.2 1.1-.2h3.7l-7.8 9.6c-.5.6-.9 1-1.4 1.2.4.1.7.3 1 .5.3.2.6.5.8.9l8 10.8h-3.8c-.5 0-.9-.1-1.1-.2-.3-.1-.5-.4-.6-.6l-6.5-8.5c-.2-.3-.4-.5-.7-.6s-.7-.2-1.2-.2h-1.4v10.2h-4.3v-23.1h4.3v9.7zm38.5 1.9c0 1.7-.3 3.3-.8 4.7-.6 1.4-1.4 2.7-2.4 3.8-1 1.1-2.3 1.9-3.7 2.5-1.4.6-3 .9-4.8.9-1.7 0-3.3-.3-4.8-.9-1.4-.6-2.7-1.4-3.7-2.5s-1.8-2.3-2.4-3.8c-.6-1.4-.8-3-.8-4.7 0-1.7.3-3.3.8-4.7s1.4-2.7 2.4-3.8c1-1.1 2.3-1.9 3.7-2.5 1.4-.6 3-.9 4.8-.9 1.2 0 2.3.1 3.3.4 1 .3 2 .7 2.8 1.2s1.6 1.1 2.3 1.8c.7.7 1.3 1.5 1.8 2.4.5.9.8 1.8 1.1 2.8.3 1.1.4 2.1.4 3.3zm-4.4 0c0-1.3-.2-2.4-.5-3.4s-.8-1.9-1.5-2.6c-.6-.7-1.4-1.2-2.3-1.6s-1.9-.6-3-.6-2.1.2-3 .6-1.7.9-2.3 1.6-1.1 1.6-1.5 2.6c-.3 1-.5 2.1-.5 3.4 0 1.3.2 2.4.5 3.4s.8 1.9 1.5 2.6 1.4 1.2 2.3 1.6c.9.4 1.9.6 3 .6s2.1-.2 3-.6c.9-.4 1.7-.9 2.3-1.6.6-.7 1.1-1.6 1.5-2.6.3-1 .5-2.2.5-3.4zm21.8 8v3.6h-13.6v-23.1h4.3v19.6h9.3zm7.3-16.2v6.4h8.1v3.3h-8.1v6.5h10.3v3.4h-14.6v-23.1h14.6v3.4h-10.3z"/></svg>