<?xml version="1.0" encoding="utf-8"?>
<!-- Generator: Adobe Illustrator 21.0.0, SVG Export Plug-In . SVG Version: 6.00 Build 0)  -->
<svg version="1.1" id="Capa_1" xmlns="http://www.w3.org/2000/svg" xmlns:xlink="http://www.w3.org/1999/xlink" x="0px" y="0px"
	 viewBox="0 0 482.1 482.1" style="enable-background:new 0 0 482.1 482.1;" xml:space="preserve">
<style type="text/css">
	.st0{fill:#A1CECA;}
	.st1{fill:#FFFFFF;}
</style>
<path d="M142,310.2c0-8-5.6-12.8-15.4-12.8c-4,0-6.7,0.4-8.1,0.8v25.7c1.7,0.4,3.7,0.5,6.6,0.5C135.6,324.4,142,319.1,142,310.2z"/>
<path d="M202.7,297.7c-4.4,0-7.2,0.4-8.9,0.8v56.9c1.7,0.4,4.4,0.4,6.8,0.4c17.8,0.1,29.4-9.7,29.4-30.4
	C230.2,307.2,219.6,297.7,202.7,297.7z"/>
<path class="st0" d="M315.5,0H121.8C93.5,0,70.5,23,70.5,51.3v189.8h-5c-11.4,0-20.7,9.3-20.7,20.7v125.4c0,11.4,9.3,20.7,20.7,20.7
	h5v23c0,28.3,23,51.3,51.3,51.3H386c28.3,0,51.3-23,51.3-51.3V121.4L315.5,0z M99.1,284.4c6.1-1,14.6-1.8,26.6-1.8
	c12.1,0,20.8,2.3,26.6,7c5.5,4.4,9.3,11.6,9.3,20.1c0,8.5-2.8,15.7-8,20.6c-6.7,6.3-16.6,9.2-28.3,9.2c-2.6,0-4.9-0.1-6.7-0.4v31.1
	H99.1V284.4z M386,450.7H121.8c-11,0-19.9-8.9-19.9-19.9v-23h246.3c11.4,0,20.7-9.2,20.7-20.7V261.7c0-11.4-9.3-20.7-20.7-20.7
	H101.9V51.3c0-10.9,8.9-19.9,19.9-19.9l181.9-0.2v67.2c0,19.6,15.9,35.6,35.6,35.6l65.9-0.2l0.7,296.9
	C405.9,441.8,397,450.7,386,450.7z M174.1,369.8v-85.4c7.2-1.1,16.6-1.8,26.6-1.8c16.5,0,27.2,3,35.6,9.3c9,6.7,14.7,17.4,14.7,32.8
	c0,16.6-6.1,28.1-14.5,35.2c-9.2,7.6-23.1,11.2-40.1,11.2C186.2,371.1,179,370.4,174.1,369.8z M314.9,319.2v16h-31.2v35h-19.7v-87
	h53.2v16.1h-33.4v19.9H314.9z"/>
<rect x="80" y="267.9" class="st0" width="259" height="118"/>
<g>
	<path class="st1" d="M134.7,325l21,31.9h-15l-13.8-22l-13.9,22H98.4l21-31.9l-20.9-31.9h14.9l13.7,22l13.9-22h14.5L134.7,325z"/>
	<path class="st1" d="M164.5,356.9v-63.8h12.4V345h28.4v11.9H164.5z"/>
	<path class="st1" d="M246.9,311.7c-0.6-3.5-3.5-9-11.6-9c-6,0-10,3.9-10,8.1c0,3.5,2.2,6.3,6.9,7.2l8.9,1.7
		c11.6,2.2,17.8,9.8,17.8,18.8c0,9.8-8.2,19.7-23,19.7c-16.9,0-24.4-10.9-25.4-20l11.5-3.1c0.5,6.3,5,12,13.9,12
		c6.7,0,10.3-3.3,10.3-7.8c0-3.7-2.8-6.6-7.7-7.6l-8.9-1.8c-10.2-2.1-16.7-8.6-16.7-18.3c0-11.3,10.2-20,22.2-20
		c15.5,0,21.4,9.4,22.9,16.6L246.9,311.7z"/>
	<path class="st1" d="M298.9,325l21,31.9h-15l-13.8-22l-13.9,22h-14.6l21-31.9l-20.9-31.9h14.9l13.7,22l14-22h14.5L298.9,325z"/>
</g>
</svg>
