<svg id="Capa_1" xmlns="http://www.w3.org/2000/svg" viewBox="0 0 482.1 482.1"><style/><path d="M142 310.2c0-8-5.6-12.8-15.4-12.8-4 0-6.7.4-8.1.8v25.7c1.7.4 3.7.5 6.6.5 10.5 0 16.9-5.3 16.9-14.2zm60.7-12.5c-4.4 0-7.2.4-8.9.8v56.9c1.7.4 4.4.4 6.8.4 17.8.1 29.4-9.7 29.4-30.4.2-18.2-10.4-27.7-27.3-27.7z"/><path d="M315.5 0H121.8C93.5 0 70.5 23 70.5 51.3v189.8h-5c-11.4 0-20.7 9.3-20.7 20.7v125.4c0 11.4 9.3 20.7 20.7 20.7h5v23c0 28.3 23 51.3 51.3 51.3H386c28.3 0 51.3-23 51.3-51.3V121.4L315.5 0zM99.1 284.4c6.1-1 14.6-1.8 26.6-1.8 12.1 0 20.8 2.3 26.6 7 5.5 4.4 9.3 11.6 9.3 20.1 0 8.5-2.8 15.7-8 20.6-6.7 6.3-16.6 9.2-28.3 9.2-2.6 0-4.9-.1-6.7-.4v31.1H99.1v-85.8zM386 450.7H121.8c-11 0-19.9-8.9-19.9-19.9v-23h246.3c11.4 0 20.7-9.2 20.7-20.7V261.7c0-11.4-9.3-20.7-20.7-20.7H101.9V51.3c0-10.9 8.9-19.9 19.9-19.9l181.9-.2v67.2c0 19.6 15.9 35.6 35.6 35.6l65.9-.2.7 296.9c0 11.1-8.9 20-19.9 20zm-211.9-80.9v-85.4c7.2-1.1 16.6-1.8 26.6-1.8 16.5 0 27.2 3 35.6 9.3 9 6.7 14.7 17.4 14.7 32.8 0 16.6-6.1 28.1-14.5 35.2-9.2 7.6-23.1 11.2-40.1 11.2-10.2 0-17.4-.7-22.3-1.3zm140.8-50.6v16h-31.2v35H264v-87h53.2v16.1h-33.4v19.9h31.1z"/><path d="M80 267.9h259v118H80z"/><path d="M77.3 356.9v-63.8h22.9c18.2 0 31.5 11.8 31.5 31.9s-13.4 31.9-31.6 31.9H77.3zm22.3-11.5c10.4 0 19.2-6.5 19.2-20.3s-8.6-20.4-19.1-20.4h-10v40.8h9.9zm71.8-53.7c17.4 0 32.8 12.7 32.8 33.3 0 20.5-15.5 33.2-32.8 33.2-17.3 0-32.8-12.7-32.8-33.2.1-20.6 15.5-33.3 32.8-33.3zm0 54.5c9.9 0 20-6.8 20-21.2s-10.1-21.2-20-21.2c-9.8 0-19.9 6.8-19.9 21.2s10.1 21.2 19.9 21.2zm39.9-21.2c0-20.3 15.4-33.3 32.5-33.3 17.6 0 26.7 10.8 29.2 21.1l-11.7 3.7c-1.5-6.1-6.5-12.9-17.5-12.9-9.5 0-19.6 6.8-19.6 21.3 0 13.6 9.5 21.1 19.8 21.1 10.9 0 16.2-7.1 17.9-13l11.6 3.5c-2.4 9.8-11.6 21.7-29.5 21.7s-32.7-12.8-32.7-33.2zm100.5 0l21 31.9h-15l-13.8-22-13.9 22h-14.6l21-31.9-20.9-31.9h14.9l13.7 22 14-22h14.5L311.8 325z"/></svg>