<svg id="Layer_1" data-name="Layer 1" xmlns="http://www.w3.org/2000/svg" viewBox="0 0 231.67 224.92"><defs><style>.cls-1{fill:#1d7ac0;}.cls-2{fill:#fff;}.cls-3{fill:#2c88cc;}.cls-4{fill:#3e9fdd;}.cls-5{fill:#50aee8;}</style></defs><title>Logo</title><path class="cls-1" d="M227.88,301.26l68.79-50a47,47,0,0,0,17.09-52.59l-26.28-80.87a47,47,0,0,0-44.73-32.5h-85A47,47,0,0,0,113,117.82L86.71,198.69a47,47,0,0,0,17.09,52.59l68.79,50A47,47,0,0,0,227.88,301.26Z" transform="translate(-84.4 -85.32)"/><circle class="cls-2" cx="114.85" cy="63.27" r="15.92"/><path class="cls-3" d="M250.75,182.25,116.9,109a47,47,0,0,0-3.91,8.83L94.16,175.76,248.49,286.29l48.19-35a47.06,47.06,0,0,0,6.7-5.92Z" transform="translate(-84.4 -85.32)"/><path class="cls-4" d="M313.76,198.69,309.65,186,173.15,85.32H157.72A47,47,0,0,0,113,117.82l-.62,1.92L296.82,251.16A47,47,0,0,0,313.76,198.69Z" transform="translate(-84.4 -85.32)"/><path class="cls-5" d="M242.62,85.5H169.77L309.23,185.3,287.36,118A47,47,0,0,0,242.62,85.5Z" transform="translate(-84.4 -85.32)"/><path class="cls-2" d="M199,270.33s11-93.33,66-120c0,0-30-8.67-66,33Z" transform="translate(-84.4 -85.32)"/><path class="cls-2" d="M199,270.33s-11-93.33-66-120c0,0,30-8.67,66,33Z" transform="translate(-84.4 -85.32)"/><circle class="cls-2" cx="114.6" cy="62.18" r="17"/></svg>